DataType=double
version=3
OpenSimVersion=4.3
endheader
time	trunk_rz	trunk_rx	trunk_ry	trunk_tx	trunk_ty	trunk_tz	neck_flexion	neck_lateral_bending	neck_rotation	arm_flex_r	arm_add_r	arm_rot_r	elbow_flex_r	pro_sup_r	wrist_flex_r	wrist_dev_r	hand_finger_flex_r
8.979200000000001	-0.05217435972952635	-0.06030736759155905	-1.330089637098453	-0.8251990442170027	0.901323381620752	-0.8757326422557876	0	0	0	-1.106473443186236	-0.2358625728941404	-1.57079633	1.746091420437462	-1.488998168570192	0.5398742748288836	-0.43633231	0
8.98916	-0.05466169197159108	-0.05413384007852916	-1.334575178862374	-0.8257236210072281	0.9026980949052702	-0.8779045747324666	0	0	0	-1.118352759002353	-0.2529228002881713	-1.57079633	1.741677249100845	-1.453800323535058	0.5904470642286892	-0.43633231	0
8.99912	-0.06824617878033329	-0.0529087347019109	-1.337462633064606	-0.8308712664396017	0.9035339067758514	-0.8782719229861562	0	0	0	-1.124761862572409	-0.2564787928188476	-1.57079633	1.742376358713122	-1.452528587719764	0.5924780384083655	-0.43633231	0
9.009069999999999	-0.07381493506678444	-0.05615839682872208	-1.33116894959582	-0.8326190455927402	0.904849027118696	-0.8779159067930324	0	0	0	-1.142023675757946	-0.2592088522213524	-1.57079633	1.736203031730275	-1.428945627218337	0.6659013916845392	-0.43633231	0
9.02003	-0.07727647575391484	-0.04979339602199492	-1.336925434200805	-0.8338654308123924	0.9058077418526496	-0.879953277691481	0	0	0	-1.15577225158381	-0.273867011985396	-1.57079633	1.741809039058544	-1.46160600775385	0.7527938699501324	-0.43633231	0
9.02943	-0.09000013695995254	-0.04839135194888455	-1.33939260998302	-0.8385312077339577	0.9066636427458207	-0.880406954563137	0	0	0	-1.161967793567748	-0.2773248307098182	-1.57079633	1.741606198283527	-1.46046739093832	0.7540285147881564	-0.43633231	0
9.03938	-0.09442381710835389	-0.05097067975109828	-1.335292082773351	-0.8396631329486434	0.9076938879674528	-0.8800383832080995	0	0	0	-1.18429224247185	-0.2827058571512084	-1.57079633	1.734430228420405	-1.445009329330204	0.7882640099695111	-0.43633231	0
9.05034	-0.102076153791142	-0.05000485484832418	-1.336527055764929	-0.8423868454965799	0.9087531805105482	-0.88050980308755	0	0	0	-1.1939931537908	-0.2886126292674077	-1.57079633	1.734698331206216	-1.446485786224801	0.8370038495458734	-0.43633231	0
9.0603	-0.1108511859511021	-0.05169656429570851	-1.333072901474887	-0.8453196590578951	0.9096255406193784	-0.8803719168139701	0	0	0	-1.20933047231696	-0.2899674705754544	-1.57079633	1.730218486133502	-1.446995128681681	0.8565516272897635	-0.43633231	0
9.071249999999999	-0.1223309190061423	-0.05037173526427269	-1.335031720006677	-0.8495043371646652	0.9105472624237286	-0.8808562291666968	0	0	0	-1.214712745728066	-0.2926725700628573	-1.57079633	1.730411404142293	-1.445956813478351	0.8577031550404657	-0.43633231	0
9.080209999999999	-0.1261865272247172	-0.05410379074227539	-1.328212466553452	-0.8505156050927374	0.9115301207317011	-0.8801818757682932	0	0	0	-1.23696051437805	-0.2933737699408983	-1.57079633	1.72270820094737	-1.434117390181695	0.9001833313912031	-0.43633231	0
9.090170000000001	-0.137132004874983	-0.05290321594401052	-1.329879674703712	-0.8544856654803462	0.9124321501153818	-0.8806577133321564	0	0	0	-1.242159200037984	-0.2958338148107725	-1.57079633	1.722875516338579	-1.433313193990397	0.9013250131400736	-0.43633231	0
9.10411	-0.1394486713209053	-0.05818067846366072	-1.319845236649501	-0.8549592907253561	0.9132584914763281	-0.8797133402546573	0	0	0	-1.269751403957001	-0.2937568438889884	-1.57079633	1.715648233769828	-1.434001836763972	0.9514055663425537	-0.43633231	0
9.111079999999999	-0.1497808582477308	-0.0570129021488198	-1.32143711001183	-0.8586834931971205	0.9141897680907384	-0.880161452712096	0	0	0	-1.274659991864818	-0.295841034436708	-1.57079633	1.715634592148233	-1.43326817208366	0.9524850753198029	-0.43633231	0
9.120039999999999	-0.1510535069941639	-0.0617316133121539	-1.314310625365315	-0.8588199032805468	0.9150121317117086	-0.8791526046369176	0	0	0	-1.30058086492787	-0.2960053427795941	-1.57079633	1.710561482848617	-1.437275696886128	1.006458107617232	-0.43633231	0
9.13001	-0.1607770454573439	-0.06032723210674134	-1.315369581795768	-0.8622656918649406	0.9158920686162279	-0.8797231882410068	0	0	0	-1.305257728758734	-0.2975211392657138	-1.57079633	1.710054625770181	-1.436623869200183	1.007387679265328	-0.43633231	0
9.14096	-0.1601720522421971	-0.06307763705442941	-1.303798531798789	-0.8615598789940401	0.9164076227924839	-0.879845294586712	0	0	0	-1.335546319509691	-0.2951725825737287	-1.57079633	1.700657974488543	-1.44277459565384	1.056856813592658	-0.43633231	0
9.150919999999999	-0.1694123994530665	-0.06203890106686135	-1.304804450003074	-0.8648521757437329	0.917269996554343	-0.8802700958054446	0	0	0	-1.340047912601937	-0.2960083600158069	-1.57079633	1.700295045769294	-1.442057376460691	1.05777456908949	-0.43633231	0
9.159879999999999	-0.1691987203554332	-0.06839023591175508	-1.290164098374744	-0.8644625440941944	0.917839683743046	-0.8792887916871098	0	0	0	-1.370286951558309	-0.2870472014002621	-1.57079633	1.690717242747791	-1.439475476989422	1.092608144138113	-0.43633231	0
9.169840000000001	-0.1776910311538036	-0.06725136971896359	-1.291044954684498	-0.867460423554429	0.9186523475630217	-0.8797413647244835	0	0	0	-1.374615775205972	-0.2876377247355203	-1.57079633	1.690262037919602	-1.438829652300305	1.093537275353349	-0.43633231	0
9.1808	-0.1857963052419211	-0.06639887217013357	-1.291902070653242	-0.8703129232444601	0.919465294779789	-0.880044724111535	0	0	0	-1.379024211872528	-0.2877883262484954	-1.57079633	1.689359488760902	-1.438136883619469	1.094751092937067	-0.43633231	0
9.18976	-0.177622460986699	-0.06983965840438129	-1.271520942524113	-0.8669446003244743	0.919566789678689	-0.880737858295249	0	0	0	-1.419813378524247	-0.2777769696983577	-1.57079633	1.677380421610123	-1.443915542108015	1.169811060558894	-0.43633231	0
9.200710000000001	-0.185018463381602	-0.06890487343609503	-1.272442811503756	-0.8695416759517329	0.9202862774381199	-0.881086462804716	0	0	0	-1.423930712210739	-0.2778838274622665	-1.57079633	1.676741057815031	-1.443255946427274	1.170456259336529	-0.43633231	0
